# xmcd
#
# Track frame offsets:
#	150
#	14181
#	34021
#	58779
#	78041
#	95895
#	115238
#	124230
#	143036
#	157571
#	169245
#	182551
#	199017
#	222227
#	250934
#	267661
#	284261
#	305839
#
# Disc length: 4205 seconds
#
# Revision: 1
# Processed by: cddbd v1.5.2PL0 Copyright (c) Steve Scherf et al.
# Submitted via: audiograbber 1.83.01
#
DISCID=09106b12
DTITLE=GGS - Alleluia
DYEAR=2007
DGENRE=Gospel
TTITLE0=Majesty
TTITLE1=The Love Of God
TTITLE2=Lord, Feed Your Children
TTITLE3=Satisfied
TTITLE4=Redeemed
TTITLE5=I Will Praise Him
TTITLE6=Just As I Am
TTITLE7=Sometimes Alleluia
TTITLE8=Our God Reigns
TTITLE9=Blow The Trumpet In Zion
TTITLE10=Awesome God
TTITLE11=El Shaddai
TTITLE12=Holy Ground
TTITLE13=Sitting At The Feet Of Jesus
TTITLE14=When God Seems So Near
TTITLE15=Sweet, Sweet Spirit
TTITLE16=Worthy The Lamb
TTITLE17=Alleluia
EXTD=
EXTT0=
EXTT1=
EXTT2=
EXTT3=
EXTT4=
EXTT5=
EXTT6=
EXTT7=
EXTT8=
EXTT9=
EXTT10=
EXTT11=
EXTT12=
EXTT13=
EXTT14=
EXTT15=
EXTT16=
EXTT17=
PLAYORDER=
